<svg width="108" height="36" viewBox="0 0 108 36" fill="none" xmlns="http://www.w3.org/2000/svg">
<path d="M32.382 18.0205C32.382 20.2111 32.3726 22.4017 32.3848 24.5923C32.3942 26.3102 31.652 27.5758 30.1242 28.4334C26.2329 30.6166 22.3483 32.8109 18.4712 35.019C16.9405 35.8905 15.4504 35.8932 13.9198 35.0218C10.0059 32.7943 6.08067 30.5871 2.16018 28.3706C0.724776 27.5601 0.00613018 26.337 0.00424397 24.7215C-0.00141466 20.248 -0.00141466 15.7745 0.00424397 11.301C0.00613018 9.68648 0.719118 8.46241 2.15452 7.65006C6.11179 5.41331 10.0681 3.17565 14.0244 0.938901C15.4665 0.123777 16.9122 0.121008 18.3542 0.936132C22.3115 3.17195 26.2669 5.41147 30.2232 7.64729C31.6596 8.45872 32.3735 9.68002 32.3792 11.2955C32.3867 13.5378 32.381 15.7791 32.381 18.0214L32.382 18.0205Z" fill="black"/>
<path d="M1.62887 9.87482C1.93915 9.25447 2.42579 8.79475 3.02655 8.45504C6.78954 6.32261 10.5516 4.18649 14.3249 2.07344C15.5472 1.3894 16.827 1.38479 18.0483 2.0679C21.833 4.18372 25.6083 6.31615 29.3722 8.46797C30.6171 9.1797 31.2424 10.3004 31.2461 11.7109C31.2584 15.9065 31.2593 20.1022 31.2461 24.2969C31.2414 25.7407 30.6001 26.8669 29.3128 27.598C25.5705 29.7221 21.8217 31.8352 18.0747 33.951C17.6551 34.1882 17.208 34.3544 16.7167 34.3812C16.313 34.4236 16.3055 34.4172 16.4328 34.0433C16.5978 33.5614 16.6733 33.0694 16.6723 32.5598C16.6676 28.4187 16.6742 24.2775 16.6676 20.1363C16.6648 18.6898 16.0141 17.583 14.7361 16.8592C11.075 14.7859 7.41105 12.7162 3.74614 10.6475C3.16802 10.3216 2.56066 10.0761 1.87408 10.0761C1.76373 10.0761 1.56285 10.113 1.62793 9.87574L1.62887 9.87482Z" fill="#FDFDFD"/>
<path d="M1.62896 9.875C1.65348 10.0255 1.77419 10.0005 1.87416 9.99685C2.59658 9.97008 3.22469 10.2535 3.82828 10.5904C5.28349 11.4028 6.73021 12.2281 8.17882 13.0506C9.59159 13.8518 11.0006 14.6596 12.4162 15.4562C13.3235 15.9667 14.259 16.4348 15.1257 17.009C16.1952 17.7179 16.745 18.7454 16.7516 19.9999C16.7715 24.1124 16.7545 28.2259 16.7639 32.3384C16.7658 33.0225 16.6969 33.6862 16.4178 34.3195C16.5102 34.4136 16.6262 34.338 16.7168 34.3813C15.8321 34.554 15.0154 34.3518 14.2515 33.9225C12.0229 32.6699 9.79908 31.4079 7.57335 30.1506C6.09833 29.317 4.6252 28.4807 3.14924 27.649C1.80437 26.8911 1.13665 25.7445 1.13477 24.2371C1.12722 20.0728 1.12911 15.9086 1.13571 11.7443C1.13665 11.0861 1.24417 10.4427 1.6299 9.87592L1.62896 9.875Z" fill="#E5E6E7"/>
<path d="M36.5986 9.26538H42.1535C44.5301 9.26538 46.3286 9.59217 47.549 10.2448C48.7694 10.8984 49.3805 12.0449 49.3805 13.6863C49.3805 14.3472 49.273 14.9445 49.057 15.478C48.8411 16.0116 48.5299 16.4501 48.1234 16.7926C47.716 17.1351 47.2199 17.3585 46.6342 17.4619V17.5809C47.2284 17.7 47.765 17.9059 48.246 18.1967C48.726 18.4875 49.1108 18.9093 49.3994 19.4632C49.688 20.0171 49.8332 20.7519 49.8332 21.6676C49.8332 22.7274 49.5682 23.6348 49.0401 24.3918C48.511 25.1488 47.7565 25.7285 46.7757 26.13C45.7949 26.5325 44.6292 26.7338 43.2777 26.7338H36.5996V9.26538H36.5986ZM40.3833 16.1833H42.5807C43.6795 16.1833 44.4406 16.0144 44.864 15.6756C45.2875 15.3368 45.4987 14.8374 45.4987 14.1764C45.4987 13.5155 45.2488 13.0271 44.748 12.7364C44.2472 12.4456 43.456 12.3006 42.3733 12.3006H40.3833V16.1842V16.1833ZM40.3833 19.1226V23.6745H42.8495C43.9888 23.6745 44.782 23.4594 45.2299 23.0293C45.677 22.5991 45.9014 22.0221 45.9014 21.2965C45.9014 20.8664 45.8033 20.4879 45.6081 20.1611C45.4129 19.8343 45.0847 19.5795 44.6254 19.3967C44.1652 19.214 43.5323 19.1216 42.7269 19.1216H40.3833V19.1226Z" fill="black"/>
<path d="M55.2143 26.734H51.4287V8.09412H55.2143V26.734Z" fill="black"/>
<path d="M70.2016 20.007C70.2016 21.1249 70.0488 22.1155 69.7423 22.9777C69.4358 23.8399 68.9906 24.5691 68.4059 25.1636C67.8212 25.7581 67.1186 26.2077 66.2981 26.5114C65.4766 26.8151 64.5514 26.9665 63.5225 26.9665C62.5586 26.9665 61.674 26.8151 60.8686 26.5114C60.0641 26.2077 59.3653 25.7591 58.773 25.1636C58.1808 24.5691 57.7233 23.8399 57.4008 22.9777C57.0783 22.1155 56.917 21.1249 56.917 20.007C56.917 18.5217 57.1867 17.2644 57.7262 16.2342C58.2656 15.204 59.0333 14.4221 60.0302 13.8867C61.027 13.3522 62.2154 13.0845 63.597 13.0845C64.8796 13.0845 66.018 13.3522 67.0101 13.8867C68.0032 14.4221 68.7831 15.204 69.3509 16.2342C69.9186 17.2644 70.2025 18.5217 70.2025 20.007H70.2016ZM60.7281 20.007C60.7281 20.8858 60.8262 21.6243 61.0223 22.2225C61.2185 22.8207 61.525 23.2721 61.9419 23.5758C62.3587 23.8796 62.9019 24.031 63.5715 24.031C64.2411 24.031 64.7702 23.8796 65.1833 23.5758C65.5954 23.2721 65.8982 22.8216 66.0906 22.2225C66.282 21.6234 66.3782 20.8849 66.3782 20.007C66.3782 19.1291 66.282 18.3842 66.0906 17.7971C65.8982 17.2099 65.5945 16.7687 65.1777 16.4733C64.7608 16.1779 64.2176 16.0302 63.548 16.0302C62.5596 16.0302 61.8419 16.3616 61.3967 17.0244C60.9516 17.6872 60.729 18.6814 60.729 20.007H60.7281Z" fill="black"/>
<path d="M77.8245 26.9969C76.4749 26.9969 75.3253 26.7541 74.3737 26.2685C73.423 25.783 72.6987 25.0315 72.2036 24.0124C71.7075 22.9942 71.4595 21.6907 71.4595 20.102C71.4595 18.5133 71.7415 17.1166 72.3064 16.0772C72.8713 15.0386 73.656 14.2743 74.6594 13.785C75.6629 13.2958 76.8276 13.0511 78.1527 13.0511C79.0958 13.0511 79.9106 13.1416 80.5972 13.3216C81.2838 13.5016 81.8836 13.7167 82.3957 13.965L81.2979 16.8046C80.7123 16.572 80.1681 16.3818 79.6645 16.2332C79.1599 16.0846 78.6563 16.0107 78.1527 16.0107C77.5019 16.0107 76.9615 16.1612 76.5315 16.4621C76.1005 16.7631 75.7798 17.2145 75.5686 17.8154C75.3573 18.4173 75.2517 19.1706 75.2517 20.0771C75.2517 20.9836 75.3658 21.7055 75.5931 22.2908C75.8204 22.876 76.1495 23.3117 76.5805 23.5961C77.0115 23.8813 77.5359 24.0235 78.1536 24.0235C78.926 24.0235 79.6126 23.921 80.2143 23.717C80.816 23.5121 81.4007 23.2259 81.9704 22.8566V25.9971C81.4017 26.3498 80.8056 26.6045 80.1841 26.7615C79.5626 26.9175 78.7761 26.996 77.8245 26.996V26.9969Z" fill="black"/>
<path d="M87.5925 8.09607V16.551C87.5925 17.0615 87.5717 17.5711 87.5311 18.0816C87.4906 18.5921 87.4453 19.1016 87.3972 19.6121H87.4463C87.699 19.2558 87.9574 18.9032 88.2224 18.5551C88.4875 18.2071 88.7704 17.8711 89.0712 17.5471L92.8946 13.417H97.0971L91.6733 19.3084L97.4272 26.9981H93.1275L89.1938 21.4953L87.5934 22.7711V26.9981H83.8672V8.09607H87.5934H87.5925Z" fill="black"/>
<path d="M108 22.7626C108 23.6774 107.781 24.4491 107.344 25.0787C106.906 25.7083 106.253 26.1855 105.388 26.5105C104.521 26.8354 103.441 26.9979 102.149 26.9979C101.192 26.9979 100.372 26.9379 99.6894 26.817C99.0066 26.697 98.3172 26.4966 97.6221 26.2151V23.1835C98.3663 23.5122 99.166 23.7836 100.02 23.9959C100.875 24.2082 101.626 24.3144 102.272 24.3144C103 24.3144 103.52 24.2082 103.835 23.9959C104.15 23.7836 104.308 23.5048 104.308 23.1595C104.308 22.9352 104.245 22.7321 104.117 22.5521C103.991 22.3721 103.718 22.1672 103.302 21.9382C102.885 21.7093 102.23 21.4111 101.339 21.0419C100.481 20.6892 99.7753 20.332 99.2226 19.971C98.6709 19.6101 98.2616 19.1827 97.9956 18.6897C97.7297 18.1968 97.5967 17.5691 97.5967 16.8065C97.5967 15.5631 98.089 14.627 99.0745 13.9975C100.06 13.3679 101.379 13.0531 103.031 13.0531C103.882 13.0531 104.693 13.1371 105.466 13.306C106.238 13.474 107.034 13.7436 107.852 14.1119L106.723 16.7585C106.044 16.4696 105.405 16.2333 104.804 16.0487C104.203 15.864 103.591 15.7717 102.97 15.7717C102.423 15.7717 102.009 15.8437 101.731 15.9887C101.453 16.1327 101.314 16.3533 101.314 16.6505C101.314 16.8675 101.386 17.0595 101.529 17.2284C101.673 17.3964 101.95 17.5829 102.363 17.7878C102.776 17.9928 103.384 18.2549 104.184 18.5762C104.961 18.8891 105.636 19.2159 106.208 19.5566C106.781 19.8972 107.222 20.3191 107.533 20.8194C107.844 21.3207 107.999 21.9687 107.999 22.7626H108Z" fill="black"/>
</svg>
